<svg width="290" height="244" viewBox="0 0 290 244" fill="none" xmlns="http://www.w3.org/2000/svg">
<mask id="path-1-inside-1_101_17" fill="white">
<path d="M144.641 87.6726L269.742 159.9L144.641 232.127L19.5403 159.9L144.641 87.6726Z"/>
</mask>
<path d="M144.641 87.6726L269.742 159.9L144.641 232.127L19.5403 159.9L144.641 87.6726Z" fill="#9FADCC"/>
<path d="M144.641 87.6726L148.394 85.5058L144.641 83.339L140.888 85.5058L144.641 87.6726ZM140.888 89.8394L265.989 162.067L273.495 157.733L148.394 85.5058L140.888 89.8394ZM23.2933 162.067L148.394 89.8394L140.888 85.5058L15.7873 157.733L23.2933 162.067Z" fill="#CAD4E8" mask="url(#path-1-inside-1_101_17)"/>
<mask id="path-3-inside-2_101_17" fill="white">
<path d="M144.641 87.6726L269.742 159.9L144.641 232.127L19.5403 159.9L144.641 87.6726Z"/>
</mask>
<path d="M144.641 87.6726L269.742 159.9L144.641 232.127L19.5403 159.9L144.641 87.6726Z" fill="#7197D6"/>
<path d="M144.641 87.6726L149.645 84.7835L144.641 81.8944L139.637 84.7835L144.641 87.6726ZM139.637 90.5617L264.738 162.789L274.746 157.011L149.645 84.7835L139.637 90.5617ZM24.5443 162.789L149.645 90.5617L139.637 84.7835L14.5362 157.011L24.5443 162.789Z" fill="#D4E4FE" mask="url(#path-3-inside-2_101_17)"/>
<path d="M144.529 78.2832L251.49 140.037L144.529 201.791L37.5686 140.037L144.529 78.2832Z" fill="white"/>
<rect width="101.063" height="101.063" transform="matrix(0.866025 0.5 -0.866025 0.5 144.529 89.5054)" fill="white"/>
<rect x="-4.30507e-08" y="0.722271" width="99.6181" height="99.6181" transform="matrix(0.866025 0.5 -0.866025 0.5 145.155 89.8665)" stroke="#CFD7FF" stroke-opacity="0.35" stroke-width="1.44454"/>
<g filter="url(#filter0_f_101_17)">
<ellipse cx="144.342" cy="146.582" rx="28.9575" ry="20.2633" transform="rotate(30 144.342 146.582)" fill="#3246FF"/>
</g>
<path d="M37.5691 154.803L144.495 216.537V232.14L37.5691 170.406L37.5691 154.803Z" fill="url(#paint0_linear_101_17)"/>
<path d="M251.421 154.803L144.495 216.537V232.14L251.421 170.406V154.803Z" fill="url(#paint1_linear_101_17)"/>
<path d="M37.5691 139.688L144.495 201.422V217.025L37.5691 155.291L37.5691 139.688Z" fill="url(#paint2_linear_101_17)"/>
<path d="M37.5691 139.688L144.495 201.422V217.025L37.5691 155.291L37.5691 139.688Z" fill="white" fill-opacity="0.58"/>
<path d="M251.421 139.688L144.495 201.422V217.025L251.421 155.291V139.688Z" fill="url(#paint3_linear_101_17)"/>
<path d="M251.421 139.688L144.495 201.422V217.025L251.421 155.291V139.688Z" fill="white" fill-opacity="0.58"/>
<path d="M148.981 78.6215L150.811 82.5648L155.811 79.6781L148.981 78.6215ZM284.765 157.016L282.935 153.073L277.935 155.96L284.765 157.016ZM284.765 162.233L277.935 163.29L282.935 166.177L284.765 162.233ZM148.981 240.628L155.811 239.572L150.811 236.685L148.981 240.628ZM140.302 240.628L138.472 236.685L133.472 239.572L140.302 240.628ZM4.51794 162.233L6.34807 166.177L11.3481 163.29L4.51794 162.233ZM4.51795 157.017L11.3481 155.96L6.34808 153.073L4.51795 157.017ZM140.302 78.6215L133.472 79.6781L138.472 82.5648L140.302 78.6215ZM152.445 81.1215L280.435 155.016L281.301 154.516L153.311 80.6215L152.445 81.1215ZM280.435 164.233L152.445 238.128L153.311 238.628L281.301 164.733L280.435 164.233ZM136.838 238.128L8.84807 164.233L7.98204 164.733L135.972 238.628L136.838 238.128ZM8.84808 155.017L136.838 81.1215L135.972 80.6215L7.98205 154.517L8.84808 155.017Z" fill="#B9C1FF"/>
<g filter="url(#filter1_i_101_17)">
<rect width="79.4498" height="79.4498" transform="matrix(0.866025 0.5 -0.866025 0.5 146.465 80.45)" fill="#3284FF" fill-opacity="0.05"/>
</g>
<g filter="url(#filter2_bii_101_17)">
<rect width="79.4498" height="79.4498" transform="matrix(0.866025 0.5 -2.20305e-08 1 146.276 1)" fill="url(#paint4_linear_101_17)" fill-opacity="0.25"/>
<rect width="79.4498" height="79.4498" transform="matrix(0.866025 0.5 -2.20305e-08 1 146.276 1)" stroke="url(#paint5_linear_101_17)" stroke-width="1.25101" stroke-linejoin="bevel"/>
</g>
<path d="M170.249 79.5L173.855 81.663C174.077 81.7961 174.261 81.9847 174.389 82.2103C174.517 82.4358 174.584 82.6907 174.584 82.95C174.584 83.2092 174.517 83.4641 174.389 83.6897C174.261 83.9152 174.077 84.1038 173.855 84.237L146 100.95L118.145 84.237C117.922 84.1038 117.738 83.9152 117.61 83.6897C117.482 83.4641 117.415 83.2092 117.415 82.95C117.415 82.6907 117.482 82.4358 117.61 82.2103C117.738 81.9847 117.922 81.7961 118.145 81.663L121.751 79.5L146 94.05L170.249 79.5ZM170.249 93.6L173.855 95.763C174.077 95.8961 174.261 96.0847 174.389 96.3103C174.517 96.5358 174.584 96.7907 174.584 97.05C174.584 97.3092 174.517 97.5641 174.389 97.7897C174.261 98.0152 174.077 98.2038 173.855 98.337L147.545 114.123C147.078 114.403 146.544 114.551 146 114.551C145.455 114.551 144.921 114.403 144.455 114.123L118.145 98.337C117.922 98.2038 117.738 98.0152 117.61 97.7897C117.482 97.5641 117.415 97.3092 117.415 97.05C117.415 96.7907 117.482 96.5358 117.61 96.3103C117.738 96.0847 117.922 95.8961 118.145 95.763L121.751 93.6L146 108.15L170.249 93.6V93.6ZM147.542 51.927L173.855 67.713C174.077 67.8461 174.261 68.0347 174.389 68.2603C174.517 68.4858 174.584 68.7407 174.584 69C174.584 69.2592 174.517 69.5141 174.389 69.7397C174.261 69.9652 174.077 70.1538 173.855 70.287L146 87L118.145 70.287C117.922 70.1538 117.738 69.9652 117.61 69.7397C117.482 69.5141 117.415 69.2592 117.415 69C117.415 68.7407 117.482 68.4858 117.61 68.2603C117.738 68.0347 117.922 67.8461 118.145 67.713L144.455 51.927C144.921 51.6466 145.455 51.4985 146 51.4985C146.544 51.4985 147.078 51.6466 147.545 51.927H147.542Z" fill="#3957F8"/>
<g filter="url(#filter3_b_101_17)">
<rect width="79.4498" height="79.4498" transform="matrix(0.866025 0.5 -2.20305e-08 1 77.66 40.7249)" fill="url(#paint6_linear_101_17)" fill-opacity="0.12"/>
<rect width="79.4498" height="79.4498" transform="matrix(0.866025 0.5 -2.20305e-08 1 77.66 40.7249)" stroke="url(#paint7_linear_101_17)" stroke-width="2" stroke-linejoin="bevel"/>
</g>
<g filter="url(#filter4_b_101_17)">
<rect width="79.4498" height="79.4498" transform="matrix(-0.866025 0.5 2.20305e-08 1 215.19 40.7249)" fill="url(#paint8_linear_101_17)" fill-opacity="0.3"/>
<rect width="79.4498" height="79.4498" transform="matrix(-0.866025 0.5 2.20305e-08 1 215.19 40.7249)" fill="url(#paint9_radial_101_17)" fill-opacity="0.59"/>
<rect width="79.4498" height="79.4498" transform="matrix(-0.866025 0.5 2.20305e-08 1 215.19 40.7249)" stroke="url(#paint10_linear_101_17)" stroke-width="2" stroke-linejoin="bevel"/>
</g>
<g filter="url(#filter5_b_101_17)">
<rect width="79.4498" height="79.4498" transform="matrix(0.866025 0.5 -0.866025 0.5 146.467 1)" fill="url(#paint11_linear_101_17)" fill-opacity="0.12"/>
<rect width="79.4498" height="79.4498" transform="matrix(0.866025 0.5 -0.866025 0.5 146.467 1)" stroke="url(#paint12_linear_101_17)" stroke-width="2" stroke-linejoin="bevel"/>
</g>
<path d="M216.81 76.6455C230.761 84.392 240.079 92.9529 243.586 101.246C247.093 109.539 244.631 117.191 236.512 123.235C228.393 129.279 214.981 133.444 197.972 135.202C180.963 136.96 161.121 136.233 140.956 133.112C120.791 129.992 101.208 124.618 84.6827 117.671C68.1578 110.723 55.4335 102.514 48.1189 94.082C40.8043 85.6495 39.2278 77.3723 43.589 70.297C47.9501 63.2217 58.053 57.666 72.6199 54.3326L74.0416 55.1221C59.7683 58.3883 49.8691 63.8319 45.5959 70.7647C41.3227 77.6974 42.8673 85.8078 50.0345 94.0702C57.2016 102.333 69.6695 110.376 85.8613 117.183C102.053 123.991 121.242 129.256 141.001 132.314C160.759 135.371 180.201 136.084 196.867 134.361C213.533 132.638 226.675 128.558 234.63 122.636C242.586 116.713 244.998 109.215 241.562 101.09C238.126 92.9639 228.995 84.5755 215.325 76.9852L216.81 76.6455Z" fill="url(#paint13_linear_101_17)"/>
<circle cx="40.4855" cy="57.3371" r="6.50044" fill="url(#paint14_linear_101_17)"/>
<circle cx="235.499" cy="107.174" r="3.61136" fill="url(#paint15_linear_101_17)"/>
<defs>
<filter id="filter0_f_101_17" x="61.6722" y="68.2157" width="165.339" height="156.732" filterUnits="userSpaceOnUse" color-interpolation-filters="sRGB">
<feFlood flood-opacity="0" result="BackgroundImageFix"/>
<feBlend mode="normal" in="SourceGraphic" in2="BackgroundImageFix" result="shape"/>
<feGaussianBlur stdDeviation="27.8074" result="effect1_foregroundBlur_101_17"/>
</filter>
<filter id="filter1_i_101_17" x="77.6599" y="80.45" width="137.611" height="79.45" filterUnits="userSpaceOnUse" color-interpolation-filters="sRGB">
<feFlood flood-opacity="0" result="BackgroundImageFix"/>
<feBlend mode="normal" in="SourceGraphic" in2="BackgroundImageFix" result="shape"/>
<feColorMatrix in="SourceAlpha" type="matrix" values="0 0 0 0 0 0 0 0 0 0 0 0 0 0 0 0 0 0 127 0" result="hardAlpha"/>
<feOffset/>
<feGaussianBlur stdDeviation="3.44028"/>
<feComposite in2="hardAlpha" operator="arithmetic" k2="-1" k3="1"/>
<feColorMatrix type="matrix" values="0 0 0 0 1 0 0 0 0 1 0 0 0 0 1 0 0 0 1 0"/>
<feBlend mode="normal" in2="shape" result="effect1_innerShadow_101_17"/>
</filter>
<filter id="filter2_bii_101_17" x="141.401" y="-3.95912" width="78.5562" height="129.093" filterUnits="userSpaceOnUse" color-interpolation-filters="sRGB">
<feFlood flood-opacity="0" result="BackgroundImageFix"/>
<feGaussianBlur in="BackgroundImage" stdDeviation="2.16681"/>
<feComposite in2="SourceAlpha" operator="in" result="effect1_backgroundBlur_101_17"/>
<feBlend mode="normal" in="SourceGraphic" in2="effect1_backgroundBlur_101_17" result="shape"/>
<feColorMatrix in="SourceAlpha" type="matrix" values="0 0 0 0 0 0 0 0 0 0 0 0 0 0 0 0 0 0 127 0" result="hardAlpha"/>
<feOffset/>
<feGaussianBlur stdDeviation="4.33363"/>
<feComposite in2="hardAlpha" operator="arithmetic" k2="-1" k3="1"/>
<feColorMatrix type="matrix" values="0 0 0 0 1 0 0 0 0 1 0 0 0 0 1 0 0 0 1 0"/>
<feBlend mode="normal" in2="shape" result="effect2_innerShadow_101_17"/>
<feColorMatrix in="SourceAlpha" type="matrix" values="0 0 0 0 0 0 0 0 0 0 0 0 0 0 0 0 0 0 127 0" result="hardAlpha"/>
<feOffset/>
<feGaussianBlur stdDeviation="4.33363"/>
<feComposite in2="hardAlpha" operator="arithmetic" k2="-1" k3="1"/>
<feColorMatrix type="matrix" values="0 0 0 0 1 0 0 0 0 1 0 0 0 0 1 0 0 0 1 0"/>
<feBlend mode="normal" in2="effect2_innerShadow_101_17" result="effect3_innerShadow_101_17"/>
</filter>
<filter id="filter3_b_101_17" x="69.5712" y="32.5021" width="84.9831" height="135.62" filterUnits="userSpaceOnUse" color-interpolation-filters="sRGB">
<feFlood flood-opacity="0" result="BackgroundImageFix"/>
<feGaussianBlur in="BackgroundImage" stdDeviation="3.61136"/>
<feComposite in2="SourceAlpha" operator="in" result="effect1_backgroundBlur_101_17"/>
<feBlend mode="normal" in="SourceGraphic" in2="effect1_backgroundBlur_101_17" result="shape"/>
</filter>
<filter id="filter4_b_101_17" x="138.296" y="32.5021" width="84.9831" height="135.62" filterUnits="userSpaceOnUse" color-interpolation-filters="sRGB">
<feFlood flood-opacity="0" result="BackgroundImageFix"/>
<feGaussianBlur in="BackgroundImage" stdDeviation="3.61136"/>
<feComposite in2="SourceAlpha" operator="in" result="effect1_backgroundBlur_101_17"/>
<feBlend mode="normal" in="SourceGraphic" in2="effect1_backgroundBlur_101_17" result="shape"/>
</filter>
<filter id="filter5_b_101_17" x="69.5722" y="-6.72271" width="153.789" height="94.8954" filterUnits="userSpaceOnUse" color-interpolation-filters="sRGB">
<feFlood flood-opacity="0" result="BackgroundImageFix"/>
<feGaussianBlur in="BackgroundImage" stdDeviation="3.61136"/>
<feComposite in2="SourceAlpha" operator="in" result="effect1_backgroundBlur_101_17"/>
<feBlend mode="normal" in="SourceGraphic" in2="effect1_backgroundBlur_101_17" result="shape"/>
</filter>
<linearGradient id="paint0_linear_101_17" x1="40.1253" y1="193.124" x2="251.395" y2="193.256" gradientUnits="userSpaceOnUse">
<stop stop-color="#F4F6FF"/>
<stop offset="0.494792" stop-color="#9BA5FF"/>
<stop offset="0.494892" stop-color="#E8EAFF"/>
<stop offset="1" stop-color="#EFF1FF"/>
</linearGradient>
<linearGradient id="paint1_linear_101_17" x1="40.1253" y1="193.124" x2="251.395" y2="193.256" gradientUnits="userSpaceOnUse">
<stop stop-color="#F4F6FF"/>
<stop offset="0.494792" stop-color="#9BA5FF"/>
<stop offset="0.494892" stop-color="#E8EAFF"/>
<stop offset="1" stop-color="#EFF1FF"/>
</linearGradient>
<linearGradient id="paint2_linear_101_17" x1="40.1253" y1="178.009" x2="251.395" y2="178.141" gradientUnits="userSpaceOnUse">
<stop stop-color="#F4F6FF"/>
<stop offset="0.494792" stop-color="#9BA5FF"/>
<stop offset="0.494892" stop-color="#E8EAFF"/>
<stop offset="1" stop-color="#EFF1FF"/>
</linearGradient>
<linearGradient id="paint3_linear_101_17" x1="40.1253" y1="178.009" x2="251.395" y2="178.141" gradientUnits="userSpaceOnUse">
<stop stop-color="#F4F6FF"/>
<stop offset="0.494792" stop-color="#9BA5FF"/>
<stop offset="0.494892" stop-color="#E8EAFF"/>
<stop offset="1" stop-color="#EFF1FF"/>
</linearGradient>
<linearGradient id="paint4_linear_101_17" x1="39.7249" y1="0" x2="39.7249" y2="79.4498" gradientUnits="userSpaceOnUse">
<stop stop-color="#325FFF" stop-opacity="0.31"/>
<stop offset="1" stop-color="#005CE7"/>
</linearGradient>
<linearGradient id="paint5_linear_101_17" x1="79.2307" y1="0.109579" x2="63.8043" y2="-1.41256" gradientUnits="userSpaceOnUse">
<stop stop-color="white"/>
<stop offset="1" stop-color="white" stop-opacity="0"/>
</linearGradient>
<linearGradient id="paint6_linear_101_17" x1="11.2591" y1="7.0102" x2="49.1005" y2="89.6785" gradientUnits="userSpaceOnUse">
<stop stop-color="#76ADFF"/>
<stop offset="0.386633" stop-color="#3253FF"/>
<stop offset="1" stop-color="white"/>
</linearGradient>
<linearGradient id="paint7_linear_101_17" x1="79.2307" y1="0.109574" x2="56.9555" y2="57.9368" gradientUnits="userSpaceOnUse">
<stop stop-color="white"/>
<stop offset="1" stop-color="white" stop-opacity="0"/>
</linearGradient>
<linearGradient id="paint8_linear_101_17" x1="24.9477" y1="29.4179" x2="51.8565" y2="85.9387" gradientUnits="userSpaceOnUse">
<stop offset="0.557292" stop-color="#326BFF"/>
<stop offset="1" stop-color="#C2E2FF"/>
</linearGradient>
<radialGradient id="paint9_radial_101_17" cx="0" cy="0" r="1" gradientUnits="userSpaceOnUse" gradientTransform="translate(49.5509 77.7871) rotate(-57.3832) scale(75.5737 41.2623)">
<stop stop-color="#EECBFF"/>
<stop offset="1" stop-color="white" stop-opacity="0"/>
</radialGradient>
<linearGradient id="paint10_linear_101_17" x1="79.2307" y1="0.109574" x2="45.6847" y2="27.4521" gradientUnits="userSpaceOnUse">
<stop stop-color="white"/>
<stop offset="1" stop-color="white" stop-opacity="0"/>
</linearGradient>
<linearGradient id="paint11_linear_101_17" x1="57.7609" y1="80.9152" x2="75.1978" y2="-1.14344" gradientUnits="userSpaceOnUse">
<stop stop-color="#76ADFF"/>
<stop offset="1" stop-color="#5B32FF"/>
</linearGradient>
<linearGradient id="paint12_linear_101_17" x1="79.3403" y1="79.5594" x2="51.7483" y2="56.276" gradientUnits="userSpaceOnUse">
<stop stop-color="white"/>
<stop offset="1" stop-color="white" stop-opacity="0"/>
</linearGradient>
<linearGradient id="paint13_linear_101_17" x1="44.9289" y1="55.4581" x2="279.586" y2="101.05" gradientUnits="userSpaceOnUse">
<stop stop-color="#5B32FF"/>
<stop offset="0.15625" stop-color="white"/>
<stop offset="0.661458" stop-color="white"/>
<stop offset="1" stop-color="#3284FF"/>
</linearGradient>
<linearGradient id="paint14_linear_101_17" x1="40.4855" y1="50.8367" x2="40.4855" y2="63.8376" gradientUnits="userSpaceOnUse">
<stop stop-color="#B0B4FF"/>
<stop offset="0.260417" stop-color="#5F6DEF"/>
</linearGradient>
<linearGradient id="paint15_linear_101_17" x1="235.499" y1="103.562" x2="235.499" y2="110.785" gradientUnits="userSpaceOnUse">
<stop stop-color="#66A3FF"/>
<stop offset="1" stop-color="#015BE2"/>
</linearGradient>
</defs>
</svg>
