<svg width="290" height="244" viewBox="0 0 290 244" fill="none" xmlns="http://www.w3.org/2000/svg">
<mask id="path-1-inside-1_101_59" fill="white">
<path d="M145.207 87.6726L270.308 159.9L145.207 232.127L20.1057 159.9L145.207 87.6726Z"/>
</mask>
<path d="M145.207 87.6726L270.308 159.9L145.207 232.127L20.1057 159.9L145.207 87.6726Z" fill="#9FADCC"/>
<path d="M145.207 87.6726L148.96 85.5058L145.207 83.339L141.454 85.5058L145.207 87.6726ZM141.454 89.8394L266.555 162.067L274.061 157.733L148.96 85.5058L141.454 89.8394ZM23.8587 162.067L148.96 89.8394L141.454 85.5058L16.3526 157.733L23.8587 162.067Z" fill="#CAD4E8" mask="url(#path-1-inside-1_101_59)"/>
<mask id="path-3-inside-2_101_59" fill="white">
<path d="M145.207 87.6726L270.308 159.9L145.207 232.127L20.1057 159.9L145.207 87.6726Z"/>
</mask>
<path d="M145.207 87.6726L270.308 159.9L145.207 232.127L20.1057 159.9L145.207 87.6726Z" fill="#71C3D6"/>
<path d="M145.207 87.6726L150.211 84.7835L145.207 81.8944L140.203 84.7835L145.207 87.6726ZM140.203 90.5617L265.304 162.789L275.312 157.011L150.211 84.7835L140.203 90.5617ZM25.1097 162.789L150.211 90.5617L140.203 84.7835L15.1016 157.011L25.1097 162.789Z" fill="#D4F4FE" mask="url(#path-3-inside-2_101_59)"/>
<path d="M145.094 78.283L252.055 140.037L145.094 201.79L38.1339 140.037L145.094 78.283Z" fill="white"/>
<rect width="101.063" height="101.063" transform="matrix(0.866025 0.5 -0.866025 0.5 145.094 89.5054)" fill="white"/>
<rect x="-4.30507e-08" y="0.722271" width="99.6181" height="99.6181" transform="matrix(0.866025 0.5 -0.866025 0.5 145.72 89.8665)" stroke="#CFFFF4" stroke-opacity="0.35" stroke-width="1.44454"/>
<g filter="url(#filter0_f_101_59)">
<ellipse cx="144.907" cy="146.582" rx="28.9575" ry="20.2633" transform="rotate(30 144.907 146.582)" fill="#00B5C0"/>
</g>
<path d="M38.1345 154.803L145.06 216.537V232.14L38.1345 170.406L38.1345 154.803Z" fill="url(#paint0_linear_101_59)"/>
<path d="M251.986 154.803L145.06 216.537V232.14L251.986 170.406V154.803Z" fill="url(#paint1_linear_101_59)"/>
<path d="M38.1345 139.688L145.06 201.422V217.025L38.1345 155.291L38.1345 139.688Z" fill="url(#paint2_linear_101_59)"/>
<path d="M38.1345 139.688L145.06 201.422V217.025L38.1345 155.291L38.1345 139.688Z" fill="white" fill-opacity="0.58"/>
<path d="M251.986 139.688L145.06 201.422V217.025L251.986 155.291V139.688Z" fill="url(#paint3_linear_101_59)"/>
<path d="M251.986 139.688L145.06 201.422V217.025L251.986 155.291V139.688Z" fill="white" fill-opacity="0.58"/>
<path d="M149.546 78.6215L151.376 82.5648L156.376 79.6781L149.546 78.6215ZM285.33 157.016L283.5 153.073L278.5 155.96L285.33 157.016ZM285.33 162.233L278.5 163.29L283.5 166.177L285.33 162.233ZM149.546 240.628L156.376 239.572L151.376 236.685L149.546 240.628ZM140.867 240.628L139.037 236.685L134.037 239.572L140.867 240.628ZM5.08331 162.233L6.91344 166.177L11.9134 163.29L5.08331 162.233ZM5.08332 157.017L11.9134 155.96L6.91344 153.073L5.08332 157.017ZM140.867 78.6215L134.037 79.6781L139.037 82.5648L140.867 78.6215ZM153.01 81.1215L281 155.016L281.866 154.516L153.876 80.6215L153.01 81.1215ZM281 164.233L153.01 238.128L153.876 238.628L281.866 164.733L281 164.233ZM137.403 238.128L9.41344 164.233L8.54741 164.733L136.537 238.628L137.403 238.128ZM9.41344 155.017L137.403 81.1215L136.537 80.6215L8.54742 154.517L9.41344 155.017Z" fill="#74D5FF"/>
<g filter="url(#filter1_i_101_59)">
<rect width="79.4498" height="79.4498" transform="matrix(0.866025 0.5 -0.866025 0.5 145.249 80.4497)" fill="#3284FF" fill-opacity="0.05"/>
</g>
<g filter="url(#filter2_bii_101_59)">
<rect width="79.4498" height="79.4498" transform="matrix(0.866025 0.5 -2.20305e-08 1 145.059 1)" fill="url(#paint4_linear_101_59)" fill-opacity="0.25"/>
<rect width="79.4498" height="79.4498" transform="matrix(0.866025 0.5 -2.20305e-08 1 145.059 1)" stroke="url(#paint5_linear_101_59)" stroke-width="1.25101" stroke-linejoin="bevel"/>
</g>
<g clip-path="url(#clip0_101_59)">
<path d="M121.867 67.1833H122.675C125.787 67.1833 128.333 69.7295 128.333 72.8416V101.133C128.333 104.245 125.787 106.792 122.675 106.792H121.867C118.755 106.792 116.208 104.245 116.208 101.133V72.8416C116.208 69.7295 118.755 67.1833 121.867 67.1833V67.1833ZM144.5 50.2083C147.612 50.2083 150.158 52.7545 150.158 55.8666V101.133C150.158 104.245 147.612 106.792 144.5 106.792C141.388 106.792 138.842 104.245 138.842 101.133V55.8666C138.842 52.7545 141.388 50.2083 144.5 50.2083ZM167.133 82.5416C170.245 82.5416 172.792 85.0878 172.792 88.1999V101.133C172.792 104.245 170.245 106.792 167.133 106.792C164.021 106.792 161.475 104.245 161.475 101.133V88.1999C161.475 85.0878 164.021 82.5416 167.133 82.5416V82.5416Z" fill="#14CDE6"/>
</g>
<g filter="url(#filter3_b_101_59)">
<rect width="79.4498" height="79.4498" transform="matrix(0.866025 0.5 -2.20305e-08 1 76.4432 40.7249)" fill="url(#paint6_linear_101_59)" fill-opacity="0.11"/>
<rect width="79.4498" height="79.4498" transform="matrix(0.866025 0.5 -2.20305e-08 1 76.4432 40.7249)" stroke="url(#paint7_linear_101_59)" stroke-width="2" stroke-linejoin="bevel"/>
</g>
<g filter="url(#filter4_b_101_59)">
<rect width="79.4498" height="79.4498" transform="matrix(-0.866025 0.5 2.20305e-08 1 213.973 40.7249)" fill="url(#paint8_linear_101_59)" fill-opacity="0.38"/>
<rect width="79.4498" height="79.4498" transform="matrix(-0.866025 0.5 2.20305e-08 1 213.973 40.7249)" fill="url(#paint9_radial_101_59)" fill-opacity="0.59"/>
<rect width="79.4498" height="79.4498" transform="matrix(-0.866025 0.5 2.20305e-08 1 213.973 40.7249)" stroke="url(#paint10_linear_101_59)" stroke-width="2" stroke-linejoin="bevel"/>
</g>
<g filter="url(#filter5_b_101_59)">
<rect width="79.4498" height="79.4498" transform="matrix(0.866025 0.5 -0.866025 0.5 145.249 1)" fill="url(#paint11_linear_101_59)" fill-opacity="0.32"/>
<rect width="79.4498" height="79.4498" transform="matrix(0.866025 0.5 -0.866025 0.5 145.249 1)" stroke="url(#paint12_linear_101_59)" stroke-width="2" stroke-linejoin="bevel"/>
</g>
<path d="M217.375 76.6455C231.326 84.392 240.644 92.9529 244.151 101.246C247.658 109.539 245.197 117.191 237.077 123.235C228.958 129.279 215.546 133.444 198.537 135.202C181.528 136.96 161.687 136.233 141.522 133.112C121.356 129.992 101.773 124.618 85.248 117.671C68.7231 110.723 55.9988 102.514 48.6842 94.082C41.3696 85.6495 39.7932 77.3723 44.1544 70.297C48.5155 63.2217 58.6183 57.666 73.1853 54.3326L74.607 55.1221C60.3337 58.3883 50.4345 63.8319 46.1613 70.7647C41.888 77.6974 43.4327 85.8078 50.5998 94.0702C57.767 102.333 70.2348 110.376 86.4267 117.183C102.618 123.991 121.807 129.256 141.566 132.314C161.325 135.371 180.766 136.084 197.432 134.361C214.098 132.638 227.24 128.558 235.196 122.636C243.151 116.713 245.563 109.215 242.127 101.09C238.691 92.9639 229.561 84.5755 215.891 76.9852L217.375 76.6455Z" fill="url(#paint13_linear_101_59)"/>
<circle cx="41.0509" cy="57.3371" r="6.50044" fill="url(#paint14_linear_101_59)"/>
<circle cx="236.064" cy="107.174" r="3.61136" fill="url(#paint15_linear_101_59)"/>
<defs>
<filter id="filter0_f_101_59" x="62.2376" y="68.2157" width="165.339" height="156.732" filterUnits="userSpaceOnUse" color-interpolation-filters="sRGB">
<feFlood flood-opacity="0" result="BackgroundImageFix"/>
<feBlend mode="normal" in="SourceGraphic" in2="BackgroundImageFix" result="shape"/>
<feGaussianBlur stdDeviation="27.8074" result="effect1_foregroundBlur_101_59"/>
</filter>
<filter id="filter1_i_101_59" x="76.4432" y="80.4497" width="137.611" height="79.45" filterUnits="userSpaceOnUse" color-interpolation-filters="sRGB">
<feFlood flood-opacity="0" result="BackgroundImageFix"/>
<feBlend mode="normal" in="SourceGraphic" in2="BackgroundImageFix" result="shape"/>
<feColorMatrix in="SourceAlpha" type="matrix" values="0 0 0 0 0 0 0 0 0 0 0 0 0 0 0 0 0 0 127 0" result="hardAlpha"/>
<feOffset/>
<feGaussianBlur stdDeviation="3.44028"/>
<feComposite in2="hardAlpha" operator="arithmetic" k2="-1" k3="1"/>
<feColorMatrix type="matrix" values="0 0 0 0 1 0 0 0 0 1 0 0 0 0 1 0 0 0 1 0"/>
<feBlend mode="normal" in2="shape" result="effect1_innerShadow_101_59"/>
</filter>
<filter id="filter2_bii_101_59" x="140.184" y="-3.95912" width="78.5562" height="129.093" filterUnits="userSpaceOnUse" color-interpolation-filters="sRGB">
<feFlood flood-opacity="0" result="BackgroundImageFix"/>
<feGaussianBlur in="BackgroundImage" stdDeviation="2.16681"/>
<feComposite in2="SourceAlpha" operator="in" result="effect1_backgroundBlur_101_59"/>
<feBlend mode="normal" in="SourceGraphic" in2="effect1_backgroundBlur_101_59" result="shape"/>
<feColorMatrix in="SourceAlpha" type="matrix" values="0 0 0 0 0 0 0 0 0 0 0 0 0 0 0 0 0 0 127 0" result="hardAlpha"/>
<feOffset/>
<feGaussianBlur stdDeviation="4.33363"/>
<feComposite in2="hardAlpha" operator="arithmetic" k2="-1" k3="1"/>
<feColorMatrix type="matrix" values="0 0 0 0 1 0 0 0 0 1 0 0 0 0 1 0 0 0 1 0"/>
<feBlend mode="normal" in2="shape" result="effect2_innerShadow_101_59"/>
<feColorMatrix in="SourceAlpha" type="matrix" values="0 0 0 0 0 0 0 0 0 0 0 0 0 0 0 0 0 0 127 0" result="hardAlpha"/>
<feOffset/>
<feGaussianBlur stdDeviation="4.33363"/>
<feComposite in2="hardAlpha" operator="arithmetic" k2="-1" k3="1"/>
<feColorMatrix type="matrix" values="0 0 0 0 1 0 0 0 0 1 0 0 0 0 1 0 0 0 1 0"/>
<feBlend mode="normal" in2="effect2_innerShadow_101_59" result="effect3_innerShadow_101_59"/>
</filter>
<filter id="filter3_b_101_59" x="68.3545" y="32.5021" width="84.9831" height="135.62" filterUnits="userSpaceOnUse" color-interpolation-filters="sRGB">
<feFlood flood-opacity="0" result="BackgroundImageFix"/>
<feGaussianBlur in="BackgroundImage" stdDeviation="3.61136"/>
<feComposite in2="SourceAlpha" operator="in" result="effect1_backgroundBlur_101_59"/>
<feBlend mode="normal" in="SourceGraphic" in2="effect1_backgroundBlur_101_59" result="shape"/>
</filter>
<filter id="filter4_b_101_59" x="137.079" y="32.5021" width="84.9831" height="135.62" filterUnits="userSpaceOnUse" color-interpolation-filters="sRGB">
<feFlood flood-opacity="0" result="BackgroundImageFix"/>
<feGaussianBlur in="BackgroundImage" stdDeviation="3.61136"/>
<feComposite in2="SourceAlpha" operator="in" result="effect1_backgroundBlur_101_59"/>
<feBlend mode="normal" in="SourceGraphic" in2="effect1_backgroundBlur_101_59" result="shape"/>
</filter>
<filter id="filter5_b_101_59" x="68.3551" y="-6.72271" width="153.789" height="94.8954" filterUnits="userSpaceOnUse" color-interpolation-filters="sRGB">
<feFlood flood-opacity="0" result="BackgroundImageFix"/>
<feGaussianBlur in="BackgroundImage" stdDeviation="3.61136"/>
<feComposite in2="SourceAlpha" operator="in" result="effect1_backgroundBlur_101_59"/>
<feBlend mode="normal" in="SourceGraphic" in2="effect1_backgroundBlur_101_59" result="shape"/>
</filter>
<linearGradient id="paint0_linear_101_59" x1="40.6906" y1="193.124" x2="251.96" y2="193.256" gradientUnits="userSpaceOnUse">
<stop stop-color="#F4FFFD"/>
<stop offset="0.494792" stop-color="#9BE1FF"/>
<stop offset="0.494892" stop-color="#E8FFFE"/>
<stop offset="1" stop-color="#EFFDFF"/>
</linearGradient>
<linearGradient id="paint1_linear_101_59" x1="40.6906" y1="193.124" x2="251.96" y2="193.256" gradientUnits="userSpaceOnUse">
<stop stop-color="#F4FFFD"/>
<stop offset="0.494792" stop-color="#9BE1FF"/>
<stop offset="0.494892" stop-color="#E8FFFE"/>
<stop offset="1" stop-color="#EFFDFF"/>
</linearGradient>
<linearGradient id="paint2_linear_101_59" x1="40.6906" y1="178.009" x2="251.96" y2="178.141" gradientUnits="userSpaceOnUse">
<stop stop-color="#F4FFFD"/>
<stop offset="0.494792" stop-color="#9BE1FF"/>
<stop offset="0.494892" stop-color="#E8FFFE"/>
<stop offset="1" stop-color="#EFFDFF"/>
</linearGradient>
<linearGradient id="paint3_linear_101_59" x1="40.6906" y1="178.009" x2="251.96" y2="178.141" gradientUnits="userSpaceOnUse">
<stop stop-color="#F4FFFD"/>
<stop offset="0.494792" stop-color="#9BE1FF"/>
<stop offset="0.494892" stop-color="#E8FFFE"/>
<stop offset="1" stop-color="#EFFDFF"/>
</linearGradient>
<linearGradient id="paint4_linear_101_59" x1="39.7249" y1="0" x2="39.7249" y2="79.4498" gradientUnits="userSpaceOnUse">
<stop stop-color="#43BBFF"/>
<stop offset="1" stop-color="#32FF5F"/>
</linearGradient>
<linearGradient id="paint5_linear_101_59" x1="79.2307" y1="0.109579" x2="63.8043" y2="-1.41256" gradientUnits="userSpaceOnUse">
<stop stop-color="white"/>
<stop offset="1" stop-color="white" stop-opacity="0"/>
</linearGradient>
<linearGradient id="paint6_linear_101_59" x1="11.2591" y1="7.0102" x2="49.1005" y2="89.6785" gradientUnits="userSpaceOnUse">
<stop stop-color="#B7FFFB"/>
<stop offset="0.494792" stop-color="#18E3FF"/>
<stop offset="1" stop-color="#D8FDFF"/>
</linearGradient>
<linearGradient id="paint7_linear_101_59" x1="79.2307" y1="0.109574" x2="56.9555" y2="57.9368" gradientUnits="userSpaceOnUse">
<stop stop-color="white"/>
<stop offset="1" stop-color="white" stop-opacity="0"/>
</linearGradient>
<linearGradient id="paint8_linear_101_59" x1="24.9477" y1="29.4179" x2="55.6435" y2="63.5629" gradientUnits="userSpaceOnUse">
<stop offset="0.557292" stop-color="#18E3FF"/>
<stop offset="1" stop-color="#B0FAFF"/>
</linearGradient>
<radialGradient id="paint9_radial_101_59" cx="0" cy="0" r="1" gradientUnits="userSpaceOnUse" gradientTransform="translate(49.5509 77.7871) rotate(-158.782) scale(17.4458 23.3316)">
<stop stop-color="#CBFCFF"/>
<stop offset="1" stop-color="white" stop-opacity="0.17"/>
</radialGradient>
<linearGradient id="paint10_linear_101_59" x1="79.2307" y1="0.109574" x2="45.6847" y2="27.4521" gradientUnits="userSpaceOnUse">
<stop stop-color="white"/>
<stop offset="1" stop-color="white" stop-opacity="0"/>
</linearGradient>
<linearGradient id="paint11_linear_101_59" x1="57.7609" y1="80.9152" x2="75.1978" y2="-1.14344" gradientUnits="userSpaceOnUse">
<stop stop-color="#B7FFFB"/>
<stop offset="1" stop-color="#A8FFBB"/>
</linearGradient>
<linearGradient id="paint12_linear_101_59" x1="79.3403" y1="79.5594" x2="51.7483" y2="56.276" gradientUnits="userSpaceOnUse">
<stop stop-color="white"/>
<stop offset="1" stop-color="white" stop-opacity="0"/>
</linearGradient>
<linearGradient id="paint13_linear_101_59" x1="45.4942" y1="55.4581" x2="280.151" y2="101.05" gradientUnits="userSpaceOnUse">
<stop stop-color="#32DAFF"/>
<stop offset="0.15625" stop-color="white"/>
<stop offset="0.661458" stop-color="white"/>
<stop offset="1" stop-color="#32FFDA"/>
</linearGradient>
<linearGradient id="paint14_linear_101_59" x1="41.0509" y1="50.8367" x2="41.0509" y2="63.8376" gradientUnits="userSpaceOnUse">
<stop stop-color="#87F7FF"/>
<stop offset="1" stop-color="#03CBDA"/>
</linearGradient>
<linearGradient id="paint15_linear_101_59" x1="236.064" y1="103.562" x2="236.064" y2="110.785" gradientUnits="userSpaceOnUse">
<stop stop-color="#87FFDB"/>
<stop offset="1" stop-color="#03DAA6"/>
</linearGradient>
<clipPath id="clip0_101_59">
<rect width="72" height="72" fill="white" transform="translate(109 48)"/>
</clipPath>
</defs>
</svg>
