<?xml version="1.0" encoding="UTF-8" standalone="no"?>
<svg
   xmlns:dc="http://purl.org/dc/elements/1.1/"
   xmlns:cc="http://creativecommons.org/ns#"
   xmlns:rdf="http://www.w3.org/1999/02/22-rdf-syntax-ns#"
   xmlns:svg="http://www.w3.org/2000/svg"
   xmlns="http://www.w3.org/2000/svg"
   viewBox="0 0 922.46667 233.17332"
   height="233.17332"
   width="922.46667"
   xml:space="preserve"
   id="svg2"
   version="1.1">
  <metadata id="metadata8">
    <rdf:RDF>
      <cc:Work rdf:about="">
        <dc:format>image/svg+xml</dc:format>
        <dc:type rdf:resource="http://purl.org/dc/dcmitype/StillImage" />
      </cc:Work>
    </rdf:RDF>
  </metadata>
  
  <defs id="defs6" />
  
  <g transform="matrix(1.3333333,0,0,-1.3333333,0,233.17333)" id="g10">
    <g transform="scale(0.1)" id="g12">
      <path
        id="path14"
        style="fill:#00a650;fill-opacity:1;fill-rule:nonzero;stroke:none"
        d="m 4034.89,1397.67 c -112.45,-141.1 -173.68,-306.4 -186.44,-473.643 -14.55,45.02 -32.58,88.373 -53.82,129.713 28.89,124.95 85.3,245.57 170.57,352.55 166.51,208.94 408.07,322.83 655.54,333.9 -285.01,41.13 -583.65,-65.58 -776.07,-307.03 -60.29,-75.67 -105.29,-158.55 -135.54,-244.97 -173.96,225.28 -454.36,361.38 -759.37,337.99 -147.73,-11.34 -284.03,-58.81 -400.97,-133.03 97.35,39.69 203.31,63.53 315.01,67.9 494.43,19.36 920.53,-359.01 960.55,-852.21 11.4,-140.481 -9.14,-276.09 -55.43,-399.809 67.2,113.25 174.11,280.059 191.16,577.211 10.97,191.36 74.25,382.348 202.86,543.738 208.26,261.31 528.1,381.29 837.31,346.25 -338.56,118.28 -729.19,17.79 -965.36,-278.56 z M 3741.48,611.219 C 3759.02,382.578 3687.96,167.602 3557.24,0 c 68.71,144.141 101.78,307.68 88.69,478.32 -39.93,520.524 -494.28,910.11 -1014.8,870.17 -77.11,-5.91 -151.31,-20.99 -221.7,-43.96 113.08,67.06 242.88,109.88 382.84,120.61 486.88,37.36 911.85,-327.05 949.21,-813.921" />
      <path
        id="path16"
        class="text"
        style="fill:#231f20;fill-opacity:1;fill-rule:nonzero;stroke:none"
        d="M 583.855,949.898 H 377.242 V 416.25 H 206.617 V 949.898 H 0 V 1077.87 H 583.855 V 949.898" />
      <path
        id="path18"
        class="text"
        style="fill:#231f20;fill-opacity:1;fill-rule:nonzero;stroke:none"
        d="M 1183.25,416.25 H 704.695 v 661.62 H 1183.25 V 949.898 H 874.434 V 835.707 H 1161.03 V 707.738 H 874.434 V 544.219 H 1183.25 V 416.25" />
      <path
        id="path20"
        class="text"
        style="fill:#231f20;fill-opacity:1;fill-rule:nonzero;stroke:none"
        d="m 1715.55,875.246 c 0,16.594 -3.41,30.813 -10.22,42.66 -6.82,11.844 -18.52,21.18 -35.11,27.996 -11.55,4.727 -25.03,7.618 -40.43,8.653 -15.41,1.035 -33.33,1.562 -53.76,1.562 h -61.77 V 777.934 h 52.43 c 27.26,0 50.06,1.339 68.43,4.004 18.37,2.667 33.77,8.73 46.21,18.222 11.85,9.18 20.51,19.317 26,30.43 5.47,11.113 8.22,25.996 8.22,44.656 z M 1981.7,416.25 h -208.39 l -180,242.602 h -79.05 V 416.25 h -169.73 v 661.62 h 286.15 c 39.1,0 72.72,-2.22 100.86,-6.67 28.14,-4.44 54.5,-14.07 79.09,-28.88 24.89,-14.82 44.66,-34 59.33,-57.55 14.65,-23.536 21.99,-53.086 21.99,-88.633 0,-48.887 -11.33,-88.731 -34,-119.532 -22.65,-30.804 -55.02,-56.425 -97.08,-76.875 L 1981.7,416.25" />
      <path
        id="path22"
        class="text"
        style="fill:#231f20;fill-opacity:1;fill-rule:nonzero;stroke:none"
        d="m 2445.57,875.246 c 0,16.594 -3.41,30.813 -10.22,42.66 -6.81,11.844 -18.51,21.18 -35.1,27.996 -11.55,4.727 -25.04,7.618 -40.44,8.653 -15.4,1.035 -33.32,1.562 -53.76,1.562 h -61.76 V 777.934 h 52.43 c 27.25,0 50.06,1.339 68.43,4.004 18.36,2.667 33.77,8.73 46.21,18.222 11.84,9.18 20.51,19.317 25.99,30.43 5.48,11.113 8.22,25.996 8.22,44.656 z M 2711.73,416.25 h -208.4 l -180,242.602 h -79.04 V 416.25 h -169.74 v 661.62 h 286.15 c 39.1,0 72.72,-2.22 100.87,-6.67 28.14,-4.44 54.5,-14.07 79.09,-28.88 24.88,-14.82 44.65,-34 59.32,-57.55 14.66,-23.536 21.99,-53.086 21.99,-88.633 0,-48.887 -11.33,-88.731 -33.99,-119.532 -22.66,-30.804 -55.03,-56.425 -97.09,-76.875 l 220.84,-283.48" />
      <path
        id="path24"
        class="text"
        style="fill:#231f20;fill-opacity:1;fill-rule:nonzero;stroke:none"
        d="m 3170.87,671.289 -81.39,237.035 -81.42,-237.035 z M 3434.18,416.25 h -176.21 l -46.08,133.738 h -244.83 l -46.1,-133.738 h -171.94 l 244.38,661.62 h 196.4 l 244.38,-661.62" />
      <path
        id="path26"
        class="text"
        style="fill:#231f20;fill-opacity:1;fill-rule:nonzero;stroke:none"
        d="M 4805.79,1077.87 4564.52,416.25 h -191.07 l -241.27,661.62 h 179.26 l 159.91,-464.448 159.91,464.448 h 174.53" />
      <path
        id="path28"
        class="text"
        style="fill:#231f20;fill-opacity:1;fill-rule:nonzero;stroke:none"
        d="m 5397.63,416.25 h -478.55 v 661.62 h 478.55 V 949.898 H 5088.82 V 835.707 h 286.6 V 707.738 h -286.6 V 544.219 h 308.81 V 416.25" />
      <path
        id="path30"
        class="text"
        style="fill:#231f20;fill-opacity:1;fill-rule:nonzero;stroke:none"
        d="m 5929.93,875.246 c 0,16.594 -3.42,30.813 -10.22,42.66 -6.82,11.844 -18.52,21.18 -35.11,27.996 -11.54,4.727 -25.03,7.618 -40.43,8.653 -15.41,1.035 -33.32,1.562 -53.77,1.562 h -61.76 V 777.934 h 52.43 c 27.25,0 50.06,1.339 68.43,4.004 18.36,2.667 33.77,8.73 46.21,18.222 11.85,9.18 20.51,19.317 26,30.43 5.48,11.113 8.22,25.996 8.22,44.656 z M 6196.08,416.25 H 5987.69 L 5807.7,658.852 h -79.06 V 416.25 h -169.73 v 661.62 h 286.15 c 39.1,0 72.71,-2.22 100.87,-6.67 28.13,-4.44 54.49,-14.07 79.08,-28.88 24.88,-14.82 44.66,-34 59.33,-57.55 14.65,-23.536 21.99,-53.086 21.99,-88.633 0,-48.887 -11.33,-88.731 -34,-119.532 -22.65,-30.804 -55.03,-56.425 -97.09,-76.875 l 220.84,-283.48" />
      <path
        id="path32"
        class="text"
        style="fill:#231f20;fill-opacity:1;fill-rule:nonzero;stroke:none"
        d="m 6655.22,671.289 -81.39,237.035 -81.42,-237.035 z M 6918.54,416.25 h -176.22 l -46.08,133.738 h -244.83 l -46.1,-133.738 h -171.94 l 244.38,661.62 h 196.4 l 244.39,-661.62" />
    </g>
  </g>
</svg>